<mxfile host="app.diagrams.net" modified="2024-03-22T12:51:42.674Z" agent="Mozilla/5.0 (Windows NT 10.0; Win64; x64; rv:124.0) Gecko/20100101 Firefox/124.0" etag="Y0Gzcx_Bz7_8bn3vt292" version="24.0.7" type="device">
  <diagram name="Page-1" id="GEY03Daag4aJzrzLVEdC">
    <mxGraphModel dx="1434" dy="792" grid="1" gridSize="10" guides="1" tooltips="1" connect="1" arrows="1" fold="1" page="1" pageScale="1" pageWidth="850" pageHeight="1100" math="0" shadow="0">
      <root>
        <mxCell id="0" />
        <mxCell id="1" parent="0" />
        <mxCell id="6KIsktRn0dW6XQNi_VB--2" style="edgeStyle=orthogonalEdgeStyle;rounded=0;orthogonalLoop=1;jettySize=auto;html=1;" parent="1" source="6KIsktRn0dW6XQNi_VB--1" target="6KIsktRn0dW6XQNi_VB--3" edge="1">
          <mxGeometry relative="1" as="geometry">
            <mxPoint x="410" y="180" as="targetPoint" />
          </mxGeometry>
        </mxCell>
        <mxCell id="6KIsktRn0dW6XQNi_VB--5" style="edgeStyle=orthogonalEdgeStyle;rounded=0;orthogonalLoop=1;jettySize=auto;html=1;entryX=0.5;entryY=0;entryDx=0;entryDy=0;" parent="1" source="6KIsktRn0dW6XQNi_VB--1" target="6KIsktRn0dW6XQNi_VB--4" edge="1">
          <mxGeometry relative="1" as="geometry" />
        </mxCell>
        <mxCell id="6KIsktRn0dW6XQNi_VB--1" value="Plaintext (128 bit)" style="rounded=0;whiteSpace=wrap;html=1;" parent="1" vertex="1">
          <mxGeometry x="400" y="50" width="120" height="60" as="geometry" />
        </mxCell>
        <mxCell id="6KIsktRn0dW6XQNi_VB--6" style="edgeStyle=orthogonalEdgeStyle;rounded=0;orthogonalLoop=1;jettySize=auto;html=1;" parent="1" source="6KIsktRn0dW6XQNi_VB--3" target="6KIsktRn0dW6XQNi_VB--7" edge="1">
          <mxGeometry relative="1" as="geometry">
            <mxPoint x="345" y="300" as="targetPoint" />
          </mxGeometry>
        </mxCell>
        <mxCell id="6KIsktRn0dW6XQNi_VB--3" value="LHS 0 (64 bit)" style="rounded=0;whiteSpace=wrap;html=1;" parent="1" vertex="1">
          <mxGeometry x="270" y="170" width="150" height="60" as="geometry" />
        </mxCell>
        <mxCell id="6KIsktRn0dW6XQNi_VB--20" style="edgeStyle=orthogonalEdgeStyle;rounded=0;orthogonalLoop=1;jettySize=auto;html=1;" parent="1" source="6KIsktRn0dW6XQNi_VB--4" target="6KIsktRn0dW6XQNi_VB--19" edge="1">
          <mxGeometry relative="1" as="geometry" />
        </mxCell>
        <mxCell id="6KIsktRn0dW6XQNi_VB--21" style="edgeStyle=orthogonalEdgeStyle;rounded=0;orthogonalLoop=1;jettySize=auto;html=1;strokeColor=default;endArrow=classic;endFill=1;entryX=0.5;entryY=0;entryDx=0;entryDy=0;" parent="1" source="6KIsktRn0dW6XQNi_VB--4" target="6KIsktRn0dW6XQNi_VB--24" edge="1">
          <mxGeometry relative="1" as="geometry">
            <mxPoint x="585" y="430" as="targetPoint" />
            <Array as="points">
              <mxPoint x="580" y="430" />
              <mxPoint x="340" y="430" />
            </Array>
          </mxGeometry>
        </mxCell>
        <mxCell id="6KIsktRn0dW6XQNi_VB--4" value="RHS 0 (64 bit)" style="rounded=0;whiteSpace=wrap;html=1;" parent="1" vertex="1">
          <mxGeometry x="510" y="170" width="150" height="60" as="geometry" />
        </mxCell>
        <mxCell id="6KIsktRn0dW6XQNi_VB--31" style="edgeStyle=none;rounded=0;orthogonalLoop=1;jettySize=auto;html=1;entryX=0.5;entryY=0;entryDx=0;entryDy=0;" parent="1" source="6KIsktRn0dW6XQNi_VB--7" target="6KIsktRn0dW6XQNi_VB--25" edge="1">
          <mxGeometry relative="1" as="geometry" />
        </mxCell>
        <mxCell id="6KIsktRn0dW6XQNi_VB--7" value="" style="shape=sumEllipse;perimeter=ellipsePerimeter;whiteSpace=wrap;html=1;backgroundOutline=1;" parent="1" vertex="1">
          <mxGeometry x="330" y="310" width="30" height="30" as="geometry" />
        </mxCell>
        <mxCell id="6KIsktRn0dW6XQNi_VB--13" style="edgeStyle=orthogonalEdgeStyle;rounded=0;orthogonalLoop=1;jettySize=auto;html=1;entryX=1;entryY=0.5;entryDx=0;entryDy=0;" parent="1" source="6KIsktRn0dW6XQNi_VB--14" target="6KIsktRn0dW6XQNi_VB--15" edge="1">
          <mxGeometry relative="1" as="geometry">
            <mxPoint x="840" y="295" as="targetPoint" />
          </mxGeometry>
        </mxCell>
        <mxCell id="6KIsktRn0dW6XQNi_VB--17" style="edgeStyle=orthogonalEdgeStyle;rounded=0;orthogonalLoop=1;jettySize=auto;html=1;entryX=1;entryY=0.5;entryDx=0;entryDy=0;" parent="1" source="6KIsktRn0dW6XQNi_VB--14" target="6KIsktRn0dW6XQNi_VB--16" edge="1">
          <mxGeometry relative="1" as="geometry" />
        </mxCell>
        <mxCell id="6KIsktRn0dW6XQNi_VB--66" style="edgeStyle=orthogonalEdgeStyle;rounded=0;orthogonalLoop=1;jettySize=auto;html=1;entryX=1;entryY=0.5;entryDx=0;entryDy=0;" parent="1" source="6KIsktRn0dW6XQNi_VB--14" target="6KIsktRn0dW6XQNi_VB--53" edge="1">
          <mxGeometry relative="1" as="geometry" />
        </mxCell>
        <mxCell id="6KIsktRn0dW6XQNi_VB--14" value="Input Key (128 bit)" style="rounded=0;whiteSpace=wrap;html=1;" parent="1" vertex="1">
          <mxGeometry x="820" y="90" width="120" height="60" as="geometry" />
        </mxCell>
        <mxCell id="6KIsktRn0dW6XQNi_VB--18" style="edgeStyle=orthogonalEdgeStyle;rounded=0;orthogonalLoop=1;jettySize=auto;html=1;" parent="1" source="6KIsktRn0dW6XQNi_VB--15" target="6KIsktRn0dW6XQNi_VB--19" edge="1">
          <mxGeometry relative="1" as="geometry">
            <mxPoint x="500" y="325" as="targetPoint" />
          </mxGeometry>
        </mxCell>
        <mxCell id="6KIsktRn0dW6XQNi_VB--15" value="Subkey 0 (K0)" style="rounded=0;whiteSpace=wrap;html=1;" parent="1" vertex="1">
          <mxGeometry x="740" y="295" width="120" height="60" as="geometry" />
        </mxCell>
        <mxCell id="6KIsktRn0dW6XQNi_VB--16" value="Subkey 1 (K1)" style="rounded=0;whiteSpace=wrap;html=1;" parent="1" vertex="1">
          <mxGeometry x="740" y="645" width="120" height="60" as="geometry" />
        </mxCell>
        <mxCell id="6KIsktRn0dW6XQNi_VB--29" style="rounded=0;orthogonalLoop=1;jettySize=auto;html=1;entryX=1;entryY=0.5;entryDx=0;entryDy=0;" parent="1" source="6KIsktRn0dW6XQNi_VB--19" target="6KIsktRn0dW6XQNi_VB--7" edge="1">
          <mxGeometry relative="1" as="geometry" />
        </mxCell>
        <mxCell id="6KIsktRn0dW6XQNi_VB--19" value="F(RHS 0, K0)" style="rounded=0;whiteSpace=wrap;html=1;" parent="1" vertex="1">
          <mxGeometry x="425" y="295" width="120" height="60" as="geometry" />
        </mxCell>
        <mxCell id="6KIsktRn0dW6XQNi_VB--24" value="LHS 1 (64 bit)" style="rounded=0;whiteSpace=wrap;html=1;" parent="1" vertex="1">
          <mxGeometry x="265" y="520" width="150" height="60" as="geometry" />
        </mxCell>
        <mxCell id="6KIsktRn0dW6XQNi_VB--25" value="RHS 1 (64 bit)" style="rounded=0;whiteSpace=wrap;html=1;" parent="1" vertex="1">
          <mxGeometry x="505" y="520" width="150" height="60" as="geometry" />
        </mxCell>
        <mxCell id="6KIsktRn0dW6XQNi_VB--32" style="edgeStyle=orthogonalEdgeStyle;rounded=0;orthogonalLoop=1;jettySize=auto;html=1;" parent="1" target="6KIsktRn0dW6XQNi_VB--36" edge="1">
          <mxGeometry relative="1" as="geometry">
            <mxPoint x="345" y="650" as="targetPoint" />
            <mxPoint x="345" y="580" as="sourcePoint" />
          </mxGeometry>
        </mxCell>
        <mxCell id="6KIsktRn0dW6XQNi_VB--33" style="edgeStyle=orthogonalEdgeStyle;rounded=0;orthogonalLoop=1;jettySize=auto;html=1;" parent="1" target="6KIsktRn0dW6XQNi_VB--39" edge="1">
          <mxGeometry relative="1" as="geometry">
            <mxPoint x="585" y="580" as="sourcePoint" />
          </mxGeometry>
        </mxCell>
        <mxCell id="6KIsktRn0dW6XQNi_VB--34" style="edgeStyle=orthogonalEdgeStyle;rounded=0;orthogonalLoop=1;jettySize=auto;html=1;strokeColor=default;endArrow=classic;endFill=1;entryX=0.5;entryY=0;entryDx=0;entryDy=0;" parent="1" target="6KIsktRn0dW6XQNi_VB--40" edge="1">
          <mxGeometry relative="1" as="geometry">
            <mxPoint x="585" y="780" as="targetPoint" />
            <mxPoint x="580" y="580" as="sourcePoint" />
            <Array as="points">
              <mxPoint x="580" y="780" />
              <mxPoint x="340" y="780" />
            </Array>
          </mxGeometry>
        </mxCell>
        <mxCell id="6KIsktRn0dW6XQNi_VB--35" style="edgeStyle=none;rounded=0;orthogonalLoop=1;jettySize=auto;html=1;entryX=0.5;entryY=0;entryDx=0;entryDy=0;" parent="1" source="6KIsktRn0dW6XQNi_VB--36" target="6KIsktRn0dW6XQNi_VB--41" edge="1">
          <mxGeometry relative="1" as="geometry" />
        </mxCell>
        <mxCell id="6KIsktRn0dW6XQNi_VB--36" value="" style="shape=sumEllipse;perimeter=ellipsePerimeter;whiteSpace=wrap;html=1;backgroundOutline=1;" parent="1" vertex="1">
          <mxGeometry x="330" y="660" width="30" height="30" as="geometry" />
        </mxCell>
        <mxCell id="6KIsktRn0dW6XQNi_VB--37" style="edgeStyle=orthogonalEdgeStyle;rounded=0;orthogonalLoop=1;jettySize=auto;html=1;" parent="1" target="6KIsktRn0dW6XQNi_VB--39" edge="1">
          <mxGeometry relative="1" as="geometry">
            <mxPoint x="500" y="675" as="targetPoint" />
            <mxPoint x="740" y="675" as="sourcePoint" />
          </mxGeometry>
        </mxCell>
        <mxCell id="6KIsktRn0dW6XQNi_VB--38" style="rounded=0;orthogonalLoop=1;jettySize=auto;html=1;entryX=1;entryY=0.5;entryDx=0;entryDy=0;" parent="1" source="6KIsktRn0dW6XQNi_VB--39" target="6KIsktRn0dW6XQNi_VB--36" edge="1">
          <mxGeometry relative="1" as="geometry" />
        </mxCell>
        <mxCell id="6KIsktRn0dW6XQNi_VB--39" value="F(RHS 1, K1)" style="rounded=0;whiteSpace=wrap;html=1;" parent="1" vertex="1">
          <mxGeometry x="425" y="645" width="120" height="60" as="geometry" />
        </mxCell>
        <mxCell id="6KIsktRn0dW6XQNi_VB--40" value="LHS 2 (64 bit)" style="rounded=0;whiteSpace=wrap;html=1;" parent="1" vertex="1">
          <mxGeometry x="265" y="870" width="150" height="60" as="geometry" />
        </mxCell>
        <mxCell id="6KIsktRn0dW6XQNi_VB--41" value="RHS 2 (64 bit)" style="rounded=0;whiteSpace=wrap;html=1;" parent="1" vertex="1">
          <mxGeometry x="505" y="870" width="150" height="60" as="geometry" />
        </mxCell>
        <mxCell id="6KIsktRn0dW6XQNi_VB--42" value="" style="endArrow=none;dashed=1;html=1;rounded=0;" parent="1" edge="1">
          <mxGeometry width="50" height="50" relative="1" as="geometry">
            <mxPoint x="470" y="950" as="sourcePoint" />
            <mxPoint x="470" y="1160" as="targetPoint" />
          </mxGeometry>
        </mxCell>
        <mxCell id="6KIsktRn0dW6XQNi_VB--43" value="" style="endArrow=none;dashed=1;html=1;rounded=0;" parent="1" edge="1">
          <mxGeometry width="50" height="50" relative="1" as="geometry">
            <mxPoint x="535" y="950" as="sourcePoint" />
            <mxPoint x="535" y="1160" as="targetPoint" />
          </mxGeometry>
        </mxCell>
        <mxCell id="6KIsktRn0dW6XQNi_VB--44" value="" style="endArrow=none;dashed=1;html=1;rounded=0;" parent="1" edge="1">
          <mxGeometry width="50" height="50" relative="1" as="geometry">
            <mxPoint x="405" y="950" as="sourcePoint" />
            <mxPoint x="405" y="1160" as="targetPoint" />
          </mxGeometry>
        </mxCell>
        <mxCell id="6KIsktRn0dW6XQNi_VB--53" value="Subkey 15 (K15)" style="rounded=0;whiteSpace=wrap;html=1;" parent="1" vertex="1">
          <mxGeometry x="740" y="1325" width="120" height="60" as="geometry" />
        </mxCell>
        <mxCell id="6KIsktRn0dW6XQNi_VB--54" value="LHS 15 (64 bit)" style="rounded=0;whiteSpace=wrap;html=1;" parent="1" vertex="1">
          <mxGeometry x="270" y="1200" width="150" height="60" as="geometry" />
        </mxCell>
        <mxCell id="6KIsktRn0dW6XQNi_VB--55" value="RHS 15 (64 bit)" style="rounded=0;whiteSpace=wrap;html=1;" parent="1" vertex="1">
          <mxGeometry x="510" y="1200" width="150" height="60" as="geometry" />
        </mxCell>
        <mxCell id="6KIsktRn0dW6XQNi_VB--56" style="edgeStyle=orthogonalEdgeStyle;rounded=0;orthogonalLoop=1;jettySize=auto;html=1;" parent="1" target="6KIsktRn0dW6XQNi_VB--60" edge="1">
          <mxGeometry relative="1" as="geometry">
            <mxPoint x="350" y="1330" as="targetPoint" />
            <mxPoint x="350" y="1260" as="sourcePoint" />
          </mxGeometry>
        </mxCell>
        <mxCell id="6KIsktRn0dW6XQNi_VB--57" style="edgeStyle=orthogonalEdgeStyle;rounded=0;orthogonalLoop=1;jettySize=auto;html=1;" parent="1" target="6KIsktRn0dW6XQNi_VB--63" edge="1">
          <mxGeometry relative="1" as="geometry">
            <mxPoint x="590" y="1260" as="sourcePoint" />
          </mxGeometry>
        </mxCell>
        <mxCell id="6KIsktRn0dW6XQNi_VB--58" style="edgeStyle=orthogonalEdgeStyle;rounded=0;orthogonalLoop=1;jettySize=auto;html=1;strokeColor=default;endArrow=classic;endFill=1;entryX=0.5;entryY=0;entryDx=0;entryDy=0;" parent="1" target="6KIsktRn0dW6XQNi_VB--64" edge="1">
          <mxGeometry relative="1" as="geometry">
            <mxPoint x="590" y="1460" as="targetPoint" />
            <mxPoint x="585" y="1260" as="sourcePoint" />
            <Array as="points">
              <mxPoint x="585" y="1460" />
              <mxPoint x="345" y="1460" />
            </Array>
          </mxGeometry>
        </mxCell>
        <mxCell id="6KIsktRn0dW6XQNi_VB--59" style="edgeStyle=none;rounded=0;orthogonalLoop=1;jettySize=auto;html=1;entryX=0.5;entryY=0;entryDx=0;entryDy=0;" parent="1" source="6KIsktRn0dW6XQNi_VB--60" target="6KIsktRn0dW6XQNi_VB--65" edge="1">
          <mxGeometry relative="1" as="geometry" />
        </mxCell>
        <mxCell id="6KIsktRn0dW6XQNi_VB--60" value="" style="shape=sumEllipse;perimeter=ellipsePerimeter;whiteSpace=wrap;html=1;backgroundOutline=1;" parent="1" vertex="1">
          <mxGeometry x="335" y="1340" width="30" height="30" as="geometry" />
        </mxCell>
        <mxCell id="6KIsktRn0dW6XQNi_VB--61" style="edgeStyle=orthogonalEdgeStyle;rounded=0;orthogonalLoop=1;jettySize=auto;html=1;" parent="1" target="6KIsktRn0dW6XQNi_VB--63" edge="1">
          <mxGeometry relative="1" as="geometry">
            <mxPoint x="505" y="1355" as="targetPoint" />
            <mxPoint x="745" y="1355" as="sourcePoint" />
          </mxGeometry>
        </mxCell>
        <mxCell id="6KIsktRn0dW6XQNi_VB--62" style="rounded=0;orthogonalLoop=1;jettySize=auto;html=1;entryX=1;entryY=0.5;entryDx=0;entryDy=0;" parent="1" source="6KIsktRn0dW6XQNi_VB--63" target="6KIsktRn0dW6XQNi_VB--60" edge="1">
          <mxGeometry relative="1" as="geometry" />
        </mxCell>
        <mxCell id="6KIsktRn0dW6XQNi_VB--63" value="F(RHS 15, K15)" style="rounded=0;whiteSpace=wrap;html=1;" parent="1" vertex="1">
          <mxGeometry x="430" y="1325" width="120" height="60" as="geometry" />
        </mxCell>
        <mxCell id="6KIsktRn0dW6XQNi_VB--67" style="edgeStyle=none;rounded=0;orthogonalLoop=1;jettySize=auto;html=1;entryX=0.25;entryY=0;entryDx=0;entryDy=0;" parent="1" source="6KIsktRn0dW6XQNi_VB--64" target="6KIsktRn0dW6XQNi_VB--69" edge="1">
          <mxGeometry relative="1" as="geometry">
            <mxPoint x="440" y="1660" as="targetPoint" />
          </mxGeometry>
        </mxCell>
        <mxCell id="6KIsktRn0dW6XQNi_VB--64" value="LHS 16 (64 bit)" style="rounded=0;whiteSpace=wrap;html=1;" parent="1" vertex="1">
          <mxGeometry x="270" y="1550" width="150" height="60" as="geometry" />
        </mxCell>
        <mxCell id="6KIsktRn0dW6XQNi_VB--68" style="edgeStyle=none;rounded=0;orthogonalLoop=1;jettySize=auto;html=1;" parent="1" source="6KIsktRn0dW6XQNi_VB--65" edge="1">
          <mxGeometry relative="1" as="geometry">
            <mxPoint x="490" y="1670" as="targetPoint" />
          </mxGeometry>
        </mxCell>
        <mxCell id="6KIsktRn0dW6XQNi_VB--65" value="RHS 16 (64 bit)" style="rounded=0;whiteSpace=wrap;html=1;" parent="1" vertex="1">
          <mxGeometry x="510" y="1550" width="150" height="60" as="geometry" />
        </mxCell>
        <mxCell id="6KIsktRn0dW6XQNi_VB--69" value="Ciphertext (128 bit)" style="rounded=0;whiteSpace=wrap;html=1;" parent="1" vertex="1">
          <mxGeometry x="400" y="1670" width="120" height="60" as="geometry" />
        </mxCell>
      </root>
    </mxGraphModel>
  </diagram>
</mxfile>
